<svg width="19" height="21" viewBox="0 0 19 21" fill="none" xmlns="http://www.w3.org/2000/svg">
    <path
        d="M5.11768 20.0218C4.43297 20.0813 3.74353 19.9902 3.09775 19.755C2.45198 19.5197 1.86551 19.146 1.37952 18.66C0.893534 18.174 0.5198 17.5875 0.284538 16.9418C0.0492749 16.296 -0.0418124 15.6066 0.0176766 14.9219V6.53184C-0.0377653 5.89667 0.039442 5.25692 0.244392 4.65318C0.449342 4.04943 0.777554 3.49491 1.20821 3.02476C1.63887 2.55461 2.16256 2.1791 2.74605 1.9221C3.32955 1.6651 3.9601 1.5322 4.59768 1.53184V0.741801C4.58442 0.558801 4.64439 0.378014 4.76441 0.239237C4.88443 0.10046 5.05468 0.0150713 5.23768 0.00181051C5.42068 -0.0114503 5.60145 0.0485353 5.74023 0.168559C5.879 0.288582 5.96442 0.458826 5.97768 0.641825V1.51182H12.0477V0.741801C12.0344 0.558801 12.0944 0.378014 12.2144 0.239237C12.3344 0.10046 12.5047 0.0150713 12.6877 0.00181051C12.8707 -0.0114503 13.0514 0.0485353 13.1902 0.168559C13.329 0.288582 13.4144 0.458826 13.4277 0.641825V1.53184C14.0653 1.5322 14.6958 1.6651 15.2793 1.9221C15.8628 2.1791 16.3865 2.55461 16.8171 3.02476C17.2478 3.49491 17.576 4.04943 17.781 4.65318C17.9859 5.25692 18.0631 5.89667 18.0077 6.53184V15.0218C18.0409 15.6976 17.9365 16.373 17.7011 17.0073C17.4656 17.6416 17.1038 18.2215 16.6377 18.7119C15.6196 19.6317 14.2781 20.11 12.9077 20.0418L5.11768 20.0218ZM1.39768 14.9219C1.34755 15.3579 1.38386 15.7995 1.50451 16.2215C1.62516 16.6435 1.82779 17.0376 2.10084 17.3812C2.37388 17.7248 2.71197 18.0112 3.09579 18.2241C3.4796 18.437 3.90161 18.5721 4.33768 18.6218C4.59682 18.6518 4.85855 18.6518 5.11768 18.6218H12.9177C15.3077 18.6218 16.6277 17.3318 16.6277 14.9918V8.31187H1.39768V14.9219ZM16.6277 6.92185V6.52183C16.6638 6.03915 16.6008 5.55422 16.4426 5.09678C16.2843 4.63934 16.0343 4.21904 15.7077 3.8618C15.09 3.28367 14.2833 2.94968 13.4377 2.92185V3.80186C13.4404 3.89283 13.4247 3.98339 13.3918 4.06822C13.3588 4.15304 13.3091 4.23036 13.2457 4.29563C13.1823 4.36091 13.1064 4.4128 13.0226 4.44822C12.9388 4.48364 12.8487 4.50185 12.7577 4.50181C12.5866 4.50323 12.421 4.44196 12.292 4.32957C12.163 4.21718 12.0797 4.06147 12.0577 3.89183V2.89183H5.98768V3.79185C5.98768 3.88246 5.96983 3.97217 5.93516 4.05589C5.90048 4.1396 5.84965 4.21569 5.78558 4.27976C5.7215 4.34384 5.64544 4.39463 5.56173 4.4293C5.47801 4.46398 5.38829 4.48179 5.29768 4.48179C5.12866 4.48545 4.96434 4.4261 4.83677 4.31517C4.7092 4.20423 4.62752 4.0497 4.60767 3.88182V2.88182C3.75011 2.8871 2.92963 3.2322 2.32604 3.84141C1.72246 4.45062 1.38501 5.27424 1.38767 6.13182C1.38767 6.24182 1.38767 6.36179 1.38767 6.48179V6.88182L16.6277 6.92185ZM12.4277 14.8718C12.4262 14.7034 12.4865 14.5403 12.597 14.4132C12.7075 14.2861 12.8607 14.2038 13.0277 14.1819H13.1277C13.2196 14.1857 13.3099 14.2076 13.3934 14.2464C13.4768 14.2852 13.5518 14.3401 13.6141 14.4079C13.6763 14.4757 13.7245 14.5551 13.756 14.6416C13.7876 14.7281 13.8017 14.8199 13.7977 14.9118C13.7927 15.0721 13.7321 15.2256 13.6263 15.346C13.5205 15.4665 13.376 15.5464 13.2177 15.5719H13.1277C13.0349 15.5719 12.9431 15.5534 12.8575 15.5176C12.7719 15.4818 12.6943 15.4293 12.6291 15.3633C12.564 15.2972 12.5126 15.2189 12.4781 15.1328C12.4435 15.0467 12.4264 14.9546 12.4277 14.8618V14.8718ZM8.32767 14.8718C8.32624 14.7034 8.38645 14.5403 8.49697 14.4132C8.60749 14.2861 8.76069 14.2038 8.92768 14.1819H9.02767C9.11962 14.1857 9.20991 14.2076 9.29337 14.2464C9.37683 14.2852 9.45183 14.3401 9.51406 14.4079C9.57629 14.4757 9.62454 14.5551 9.65604 14.6416C9.68755 14.7281 9.70171 14.8199 9.69768 14.9118C9.69275 15.0721 9.63216 15.2256 9.52631 15.346C9.42047 15.4665 9.27598 15.5464 9.11768 15.5719H9.02767C8.84282 15.5693 8.66628 15.4947 8.53556 15.364C8.40484 15.2333 8.33026 15.0567 8.32767 14.8718ZM4.22768 14.8718C4.22625 14.7034 4.28646 14.5403 4.39698 14.4132C4.5075 14.2861 4.66068 14.2038 4.82767 14.1819H4.92768C5.11162 14.1922 5.28406 14.2746 5.40762 14.4112C5.53117 14.5479 5.59587 14.7278 5.58768 14.9118C5.58319 15.0707 5.52401 15.2231 5.42016 15.3434C5.31631 15.4636 5.17415 15.5443 5.01768 15.5719H4.91767C4.73467 15.5719 4.55917 15.4991 4.42977 15.3697C4.30037 15.2403 4.22768 15.0648 4.22768 14.8818V14.8718ZM12.4277 11.2518C12.4262 11.0834 12.4865 10.9203 12.597 10.7932C12.7075 10.6661 12.8607 10.5838 13.0277 10.5619H13.1277C13.2937 10.5771 13.4489 10.651 13.5653 10.7705C13.6817 10.8899 13.7516 11.0469 13.7625 11.2134C13.7733 11.3798 13.7244 11.5447 13.6245 11.6782C13.5246 11.8118 13.3804 11.9052 13.2177 11.9419H13.1177C13.0262 11.9419 12.9357 11.9237 12.8513 11.8884C12.7669 11.8531 12.6904 11.8013 12.6262 11.7362C12.562 11.6711 12.5114 11.5939 12.4773 11.509C12.4432 11.4241 12.4264 11.3333 12.4277 11.2418V11.2518ZM8.32767 11.2518C8.32624 11.0834 8.38645 10.9203 8.49697 10.7932C8.60749 10.6661 8.76069 10.5838 8.92768 10.5619H9.02767C9.11917 10.5644 9.20925 10.5852 9.29265 10.6229C9.37606 10.6606 9.45111 10.7145 9.51346 10.7815C9.57582 10.8485 9.62422 10.9273 9.65584 11.0132C9.68747 11.0991 9.7017 11.1904 9.69768 11.2818C9.6947 11.4427 9.63478 11.5973 9.52859 11.7181C9.42239 11.839 9.27681 11.9182 9.11768 11.9419H9.02767C8.84202 11.9419 8.66398 11.8681 8.53271 11.7368C8.40143 11.6055 8.32767 11.4275 8.32767 11.2418V11.2518ZM4.22768 11.2518C4.22625 11.0834 4.28646 10.9203 4.39698 10.7932C4.5075 10.6661 4.66068 10.5838 4.82767 10.5619H4.92768C5.09375 10.5771 5.24894 10.651 5.36532 10.7705C5.48169 10.8899 5.55159 11.0469 5.56245 11.2134C5.5733 11.3798 5.5244 11.5447 5.42452 11.6782C5.32465 11.8118 5.18037 11.9052 5.01768 11.9419H4.91767C4.73376 11.9392 4.55828 11.8642 4.42916 11.7333C4.30004 11.6023 4.22766 11.4257 4.22768 11.2418V11.2518Z"
        fill="white" />
</svg>
    